<?xml version="1.0" encoding="utf-8"?>
<!-- Generator: Adobe Illustrator 25.1.0, SVG Export Plug-In . SVG Version: 6.00 Build 0)  -->
<svg version="1.1" id="Layer_1" xmlns="http://www.w3.org/2000/svg" xmlns:xlink="http://www.w3.org/1999/xlink" x="0px" y="0px"
	 viewBox="0 0 1920 1080" style="enable-background:new 0 0 1920 1080;" xml:space="preserve">
<style type="text/css">
	.st0{fill:#C3DDD7;stroke:#020501;stroke-width:3;stroke-miterlimit:10;}
	.st1{fill:#18681C;stroke:#18681C;stroke-width:25.7212;stroke-miterlimit:10;}
	.st2{fill:none;stroke:#2C720C;stroke-width:13;stroke-miterlimit:10;}
	.st3{fill:#DB54EF;}
	.st4{fill:#D66654;}
	.st5{fill:#EEF40B;}
	.st6{fill:#2C720C;stroke:#2C720C;stroke-width:9.3405;stroke-miterlimit:10;}
	.st7{fill:none;stroke:#195E19;stroke-width:19.5447;stroke-miterlimit:10;}
	.st8{fill:#D8BB2B;stroke:#020501;stroke-width:13;stroke-miterlimit:10;}
	.st9{fill:#D8BB2B;stroke:#020501;stroke-width:5;stroke-miterlimit:10;}
	.st10{fill:#020501;stroke:#020501;stroke-width:6;stroke-miterlimit:10;}
	.st11{fill:none;stroke:#020501;stroke-width:6;stroke-miterlimit:10;}
	.st12{fill:#020501;stroke:#020501;stroke-width:3;stroke-miterlimit:10;}
</style>
<path class="st0" d="M395.5,269.5c-4.96-5.73-5.74-11.9-7-25c-4.85-50.45-7.12-75.82,0-83c13.23-13.33,41.64-14.61,59-1
	c25.66,20.11,12.52,61.25,11,66c-8,25.04-27.01,38.53-34,43c-3.67-7.75-8.93-21.47-9-39c-0.03-8.84-0.16-42.41,25-61
	c4.67-3.45,25.66-17.8,47-9c18.09,7.46,23.89,26.38,25,30c6.74,22-4.12,41.15-8,48c-15.29,26.96-42.65,34.87-50,37
	C449.37,276.98,411.48,287.94,395.5,269.5z"/>
<path class="st1" d="M974.87,610.54c45.25-21.22,53.09-44.25,55.03-53.51c10.43-49.84-62.43-121.18-191.98-162.42
	c-23.46,129.07,5.54,224.37,56.16,239.66C903.5,637.12,930.04,642.14,974.87,610.54z"/>
<path class="st2" d="M974.5,622.5c12.38,32.66,144.44,330.9,210,450"/>
<path class="st2" d="M899.5,910.5c2.21,0.33,206.42,24.5,295,182"/>
<g>
	<path class="st3" d="M827.18,957.81c-29.16,0-54.06-19.74-60.57-48.01l-3.5-15.21c-4.64-20.16-18.9-36.74-38.13-44.34l-14.51-5.74
		c-22.05-8.72-36.96-28.82-38.9-52.45c-1.94-23.63,9.48-45.89,29.82-58.09l13.38-8.03c17.74-10.64,29.1-29.32,30.39-49.97
		l0.97-15.57c1.03-16.48,8.26-31.48,20.36-42.22c11.52-10.23,26.33-15.86,41.68-15.86c14.86,0,28.79,5.29,40.28,15.29l11.77,10.25
		c11.44,9.96,26.09,15.44,41.26,15.44c5.27,0,10.54-0.67,15.65-1.98l15.11-3.89c5.25-1.35,10.57-2.03,15.82-2.03
		c20.53,0,39.7,10.46,51.29,27.97c11.58,17.51,13.48,38.71,5.21,58.16l-6.11,14.36c-8.1,19.04-6.31,40.83,4.79,58.29l8.37,13.17
		c12.28,19.34,13.04,42.84,2.04,62.88c-11.06,20.13-31.21,32.14-53.91,32.14c-1.9,0-3.84-0.09-5.76-0.25l-15.54-1.37
		c-1.83-0.16-3.69-0.24-5.53-0.24c-18.8,0-36.45,8.31-48.43,22.81l-9.94,12.03C862.56,949.82,845.74,957.81,827.18,957.81
		C827.19,957.81,827.18,957.81,827.18,957.81z"/>
	<path d="M808.17,602.82c14.74,0,28.55,5.25,39.95,15.17l11.77,10.24c11.53,10.04,26.3,15.57,41.59,15.57c5.32,0,10.62-0.67,15.78-2
		l15.11-3.89c5.2-1.34,10.49-2.02,15.7-2.02c20.36,0,39.38,10.37,50.86,27.74c11.49,17.37,13.37,38.39,5.16,57.69L998,735.68
		c-8.16,19.19-6.36,41.15,4.82,58.75l8.37,13.17c12.18,19.18,12.94,42.49,2.02,62.37c-5.17,9.41-12.65,17.32-21.63,22.89
		c-9.49,5.88-20.5,8.99-31.84,8.99c-1.89,0-3.81-0.09-5.71-0.25l-15.54-1.37c-1.84-0.16-3.72-0.25-5.57-0.25
		c-18.95,0-36.74,8.38-48.82,22.99L874.16,935c-11.89,14.38-28.57,22.3-46.97,22.3c-13.49,0-26.81-4.43-37.49-12.46
		c-11.48-8.63-19.29-20.79-22.6-35.16l-3.5-15.21c-4.68-20.32-19.05-37.03-38.44-44.7l-14.51-5.74
		c-11.22-4.44-20.73-11.82-27.48-21.34c-6.35-8.94-10.18-19.55-11.1-30.69s1.14-22.23,5.94-32.09c5.11-10.5,13.29-19.33,23.64-25.53
		l13.38-8.03c17.88-10.73,29.33-29.56,30.63-50.37l0.97-15.57c1.02-16.35,8.19-31.22,20.19-41.88
		C778.25,608.41,792.94,602.82,808.17,602.82 M808.17,601.82c-30.86,0-60.33,23.12-62.54,58.55l-0.97,15.57
		c-1.28,20.48-12.55,39.02-30.15,49.57l-13.38,8.03c-44.31,26.58-38.9,92.43,9.15,111.43l14.51,5.74
		c19.08,7.54,33.23,24,37.83,43.99l3.5,15.21c7.08,30.76,33.82,48.4,61.07,48.4c17.36,0,34.93-7.17,47.74-22.67l9.94-12.03
		c11.9-14.4,29.55-22.63,48.05-22.63c1.82,0,3.65,0.08,5.48,0.24l15.54,1.37c1.96,0.17,3.89,0.26,5.8,0.26
		c48.19,0,78.94-53.83,52.29-95.79l-8.37-13.17c-11-17.32-12.78-38.94-4.75-57.83l6.11-14.36c18.03-42.4-14.27-86.83-56.96-86.82
		c-5.18,0-10.53,0.66-15.95,2.05l-15.11,3.89c-5.13,1.32-10.35,1.97-15.53,1.97c-14.87,0-29.46-5.33-40.93-15.32l-11.77-10.24
		C836.58,606.61,822.24,601.82,808.17,601.82L808.17,601.82z"/>
</g>
<path class="st2" d="M1184.5,783.5c2.21,0.33-78.58,151.5,10,309"/>
<g>
	<path class="st4" d="M1257.42,885.77c-12.89,0-24.12-7.35-29.31-19.18l-29.67-67.66c-5.27-12.02-17.15-19.78-30.27-19.78
		c-3.69,0-7.34,0.62-10.85,1.84l-69.78,24.25c-3.55,1.24-7.18,1.86-10.78,1.86c-10.98,0-21.43-6.02-27.29-15.71
		c-5.88-9.74-6.18-21.16-0.82-31.34l34.4-65.38c7.97-15.16,2.88-34.19-11.61-43.33l-62.47-39.44
		c-11.37-7.18-16.88-19.85-14.38-33.06c2.5-13.21,12.26-22.99,25.47-25.52l72.56-13.87c16.82-3.22,28.52-19.07,26.64-36.09
		l-8.12-73.43c-1.02-9.23,1.74-18.02,7.76-24.75c6.21-6.94,15.07-10.91,24.3-10.91c7.55,0,14.7,2.7,20.66,7.81l56.09,48.08
		c5.99,5.13,13.62,7.96,21.5,7.96c8.81,0,17.09-3.42,23.33-9.63l52.35-52.13c6.18-6.16,13.92-9.41,22.37-9.41
		c8.82,0,17.4,3.65,23.54,10c5.95,6.17,9.05,14.43,8.74,23.26l-2.62,73.83c-0.61,17.12,12.25,32.05,29.26,34.01l73.4,8.43
		c13.36,1.53,23.82,10.56,27.3,23.55s-1.07,26.04-11.88,34.04l-59.36,43.98c-13.76,10.2-17.42,29.56-8.34,44.08l39.17,62.64
		c6.27,10.03,6.62,22.14,0.94,32.4c-5.71,10.3-16.36,16.71-27.8,16.71c-2.83,0-5.71-0.38-8.55-1.14l-71.4-18.98
		c-2.79-0.74-5.65-1.12-8.51-1.12c-13.99,0-26.51,8.87-31.16,22.07l-24.55,69.68C1283.11,877.37,1271.23,885.77,1257.42,885.77z"/>
	<path d="M1339.5,387.44c8.69,0,17.13,3.59,23.17,9.85c5.86,6.07,8.91,14.2,8.6,22.9l-2.62,73.83c-0.3,8.46,2.58,16.65,8.1,23.07
		c5.52,6.42,13.19,10.48,21.6,11.45l73.4,8.43c13.15,1.51,23.45,10.39,26.88,23.18c3.43,12.79-1.05,25.63-11.69,33.51l-59.36,43.98
		c-6.8,5.04-11.42,12.4-12.99,20.72c-1.57,8.32,0.03,16.85,4.52,24.03l39.17,62.64c6.17,9.87,6.52,21.8,0.93,31.89
		c-5.62,10.14-16.1,16.45-27.36,16.45c-2.78,0-5.62-0.38-8.42-1.12l-71.4-18.98c-2.83-0.75-5.73-1.13-8.63-1.13
		c-14.2,0-26.91,9-31.63,22.41l-24.55,69.68c-4.51,12.8-16.21,21.07-29.8,21.07c-12.69,0-23.74-7.23-28.85-18.88l-29.67-67.66
		c-5.35-12.2-17.41-20.08-30.73-20.08c-3.74,0-7.45,0.63-11.01,1.87l-69.78,24.25c-3.5,1.22-7.07,1.83-10.61,1.83
		c-10.8,0-21.1-5.93-26.86-15.47c-5.79-9.58-6.08-20.83-0.81-30.85l34.4-65.38c3.94-7.49,4.91-16.12,2.72-24.3
		c-2.19-8.18-7.34-15.17-14.5-19.69l-62.47-39.44c-11.2-7.07-16.62-19.54-14.16-32.55s12.07-22.63,25.07-25.12l72.56-13.87
		c8.32-1.59,15.66-6.22,20.69-13.03c5.03-6.81,7.28-15.2,6.35-23.61l-8.12-73.43c-1-9.09,1.71-17.74,7.64-24.36
		c6.12-6.83,14.84-10.75,23.92-10.75c7.43,0,14.46,2.66,20.33,7.69l56.09,48.08c6.08,5.21,13.83,8.08,21.83,8.08
		c8.94,0,17.35-3.47,23.68-9.78l52.35-52.13C1323.57,390.64,1331.19,387.44,1339.5,387.44L1339.5,387.44 M1339.5,386.44
		c-7.96,0-16.08,2.95-22.72,9.56l-52.35,52.13c-6.33,6.3-14.64,9.49-22.97,9.49c-7.52,0-15.06-2.59-21.18-7.84l-56.09-48.08
		c-6.4-5.49-13.78-7.93-20.98-7.93c-18,0-34.87,15.26-32.56,36.22l8.12,73.43c1.87,16.88-9.56,32.36-26.24,35.55l-72.56,13.87
		c-29,5.54-36.23,43.73-11.26,59.49l62.47,39.44c14.36,9.07,19.34,27.65,11.43,42.68l-34.4,65.38
		c-11.91,22.64,5.53,47.79,28.55,47.79c3.54,0,7.22-0.6,10.94-1.89l69.78-24.25c3.53-1.23,7.13-1.81,10.68-1.81
		c12.59,0,24.49,7.35,29.81,19.48l29.67,67.66c5.73,13.06,17.75,19.48,29.76,19.48c12.85,0,25.67-7.34,30.74-21.73l24.55-69.68
		c4.68-13.29,17.19-21.74,30.69-21.74c2.77,0,5.58,0.36,8.38,1.1l71.4,18.98c2.97,0.79,5.87,1.16,8.68,1.16
		c24.23,0,41.31-27.44,27.28-49.87l-39.17-62.64c-9-14.4-5.43-33.3,8.22-43.41l59.36-43.98c23.72-17.58,13.67-55.12-15.67-58.49
		l-73.4-8.43c-16.87-1.94-29.42-16.52-28.82-33.49l2.62-73.83C1372.99,400.07,1356.62,386.44,1339.5,386.44L1339.5,386.44z"/>
</g>
<g>
	<circle class="st5" cx="1247" cy="622" r="71.5"/>
	<path d="M1247,551c39.15,0,71,31.85,71,71s-31.85,71-71,71s-71-31.85-71-71S1207.85,551,1247,551 M1247,550
		c-39.76,0-72,32.24-72,72s32.24,72,72,72s72-32.24,72-72S1286.76,550,1247,550L1247,550z"/>
</g>
<g>
	<circle class="st5" cx="858" cy="780" r="71.5"/>
	<path d="M858,709c39.15,0,71,31.85,71,71s-31.85,71-71,71s-71-31.85-71-71S818.85,709,858,709 M858,708c-39.76,0-72,32.24-72,72
		s32.24,72,72,72s72-32.24,72-72S897.76,708,858,708L858,708z"/>
</g>
<path class="st6" d="M1266.05,1017.48c-34.11,16.06-71.44,4.11-90.31,16.54c-10.97,7.23,17.02-32.94,37.42-83.84
	c16.64-41.53,136.07-82.56,150.68-63.98C1378.44,904.78,1308.82,997.34,1266.05,1017.48z"/>
<path class="st7" d="M829.55,386.28c0,0,141.58,38.39,155.97,226.59"/>
<path class="st8" d="M238,386.28"/>
<path class="st8" d="M261.5,305.5"/>
<ellipse class="st9" cx="419.5" cy="373.5" rx="150" ry="101"/>
<circle class="st10" cx="309.5" cy="361.5" r="8.5"/>
<path class="st11" d="M330,386"/>
<path class="st11" d="M283,416c2.63,1.43,23.07-7.37,30-19"/>
<path class="st11" d="M297,315.2c0,0,16.57-50.2-51.72-40.7"/>
<path class="st11" d="M292,316c6.22-2.15-21.35-30.02-48.72-22.71"/>
<circle class="st10" cx="239" cy="292" r="6"/>
<circle class="st10" cx="238" cy="273" r="6"/>
<polyline class="st10" points="569,366 588.54,375.5 569,382 "/>
<path class="st12" d="M360.5,280.5c-17.11-9.25,40.11,67.42-12,182l55,8c1.05-12.78,54.79-83.58,11-194L360.5,280.5z"/>
<path class="st12" d="M451.33,275.57c-7.69-18.12,55.34,88.65-2.83,196.93l60-18c0.96-8.99,44.14-60.87-2-163L451.33,275.57z"/>
</svg>
